M48
;Layer_Color=9474304
;FILE_FORMAT=2:5
INCH,LZ
;TYPE=PLATED
T1F00S00C0.02756
T2F00S00C0.03150
T3F00S00C0.03346
T4F00S00C0.03543
%
T01
X0410945Y0278406
Y0303997
X03325Y03125
Y03225
Y03325
T02
X03285Y03835
X03385
X0358Y0386
X0368
T03
X04115Y03355
X04215
X041Y03505
X04
T04
X03565Y0281
X03665
X0366Y0292
X0356
X03545Y03315
Y03365
Y03415
X0378
Y03365
Y03315
M30
