G04*
G04 #@! TF.GenerationSoftware,Altium Limited,Altium Designer,21.8.1 (53)*
G04*
G04 Layer_Color=2752767*
%FSLAX25Y25*%
%MOIN*%
G70*
G04*
G04 #@! TF.SameCoordinates,09E1DB28-DAEE-4E81-ADDD-69EA7BC9691D*
G04*
G04*
G04 #@! TF.FilePolarity,Positive*
G04*
G01*
G75*
%ADD35C,0.00200*%
%ADD36C,0.00267*%
D35*
X410700Y334700D02*
Y336300D01*
X412300D01*
Y334700D01*
X410700D01*
X420700D02*
Y336300D01*
X422300D01*
Y334700D01*
X420700D01*
X399200Y349700D02*
Y351300D01*
X400800D01*
Y349700D01*
X399200D01*
X409200D02*
Y351300D01*
X410800D01*
Y349700D01*
X409200D01*
X354500Y330700D02*
X353700Y332300D01*
X355300D01*
X354500Y330700D01*
Y335700D02*
X353700Y337300D01*
X355300D01*
X354500Y335700D01*
Y340700D02*
X353700Y342300D01*
X355300D01*
X354500Y340700D01*
X378000Y330700D02*
X377200Y332300D01*
X378800D01*
X378000Y330700D01*
Y335700D02*
X377200Y337300D01*
X378800D01*
X378000Y335700D01*
Y340700D02*
X377200Y342300D01*
X378800D01*
X378000Y340700D01*
X410945Y303197D02*
X411345Y303597D01*
X411745D01*
X411345Y303997D01*
X411745Y304397D01*
X411345D01*
X410945Y304797D01*
X410545Y304397D01*
X410145D01*
X410545Y303997D01*
X410145Y303597D01*
X410545D01*
X410945Y303197D01*
Y277606D02*
X411345Y278006D01*
X411745D01*
X411345Y278406D01*
X411745Y278806D01*
X411345D01*
X410945Y279206D01*
X410545Y278806D01*
X410145D01*
X410545Y278406D01*
X410145Y278006D01*
X410545D01*
X410945Y277606D01*
X356500Y280200D02*
X355700Y281800D01*
X357300D01*
X356500Y280200D01*
X366500D02*
X365700Y281800D01*
X367300D01*
X366500Y280200D01*
X366000Y291200D02*
X365200Y292800D01*
X366800D01*
X366000Y291200D01*
X356000D02*
X355200Y292800D01*
X356800D01*
X356000Y291200D01*
X332500Y331700D02*
X332900Y332100D01*
X333300D01*
X332900Y332500D01*
X333300Y332900D01*
X332900D01*
X332500Y333300D01*
X332100Y332900D01*
X331700D01*
X332100Y332500D01*
X331700Y332100D01*
X332100D01*
X332500Y331700D01*
Y321700D02*
X332900Y322100D01*
X333300D01*
X332900Y322500D01*
X333300Y322900D01*
X332900D01*
X332500Y323300D01*
X332100Y322900D01*
X331700D01*
X332100Y322500D01*
X331700Y322100D01*
X332100D01*
X332500Y321700D01*
Y311700D02*
X332900Y312100D01*
X333300D01*
X332900Y312500D01*
X333300Y312900D01*
X332900D01*
X332500Y313300D01*
X332100Y312900D01*
X331700D01*
X332100Y312500D01*
X331700Y312100D01*
X332100D01*
X332500Y311700D01*
D36*
X329300Y383500D02*
G03*
X329300Y383500I-800J0D01*
G01*
X339300D02*
G03*
X339300Y383500I-800J0D01*
G01*
X358800Y386000D02*
G03*
X358800Y386000I-800J0D01*
G01*
X368800D02*
G03*
X368800Y386000I-800J0D01*
G01*
M02*
