G04*
G04 #@! TF.GenerationSoftware,Altium Limited,Altium Designer,21.8.1 (53)*
G04*
G04 Layer_Physical_Order=1*
G04 Layer_Color=255*
%FSLAX25Y25*%
%MOIN*%
G70*
G04*
G04 #@! TF.SameCoordinates,09E1DB28-DAEE-4E81-ADDD-69EA7BC9691D*
G04*
G04*
G04 #@! TF.FilePolarity,Positive*
G04*
G01*
G75*
%ADD10C,0.01000*%
%ADD25R,0.11811X0.19685*%
%ADD26C,0.05512*%
%ADD27C,0.06299*%
%ADD28O,0.07874X0.03937*%
%ADD29O,0.07874X0.03937*%
%ADD30C,0.05906*%
%ADD31R,0.05906X0.05906*%
%ADD32R,0.05906X0.05906*%
%ADD33C,0.04724*%
%ADD34R,0.04724X0.04724*%
D10*
X366500Y318000D02*
X368500Y320000D01*
X410945Y278406D02*
Y288055D01*
X379000Y320000D02*
X410945Y288055D01*
X368500Y320000D02*
X379000D01*
X366500Y281000D02*
Y292000D01*
Y318000D01*
Y281000D02*
Y291500D01*
X350500Y287000D02*
X356500Y281000D01*
X350500Y287000D02*
Y297000D01*
X332500Y305000D02*
X338500Y299000D01*
X348500D01*
X369014Y381486D02*
X400000Y350500D01*
X369014Y381486D02*
Y384986D01*
X368000Y386000D02*
X369014Y384986D01*
X410756Y346244D02*
Y349744D01*
X410000Y350500D02*
X410756Y349744D01*
Y346244D02*
X421500Y335500D01*
X354500Y341500D02*
X367961D01*
X369492Y339968D01*
X372563D01*
X374595Y344969D02*
X402032D01*
X372563Y342937D02*
X374595Y344969D01*
X372563Y339968D02*
Y342937D01*
Y339968D02*
X376031Y336500D01*
X402032Y344969D02*
X411500Y335500D01*
X376031Y336500D02*
X378000D01*
X379969Y341500D02*
X395443Y326025D01*
Y319498D02*
X410945Y303997D01*
X395443Y319498D02*
Y326025D01*
X354627Y331500D02*
X378000D01*
X354627D02*
X355984Y330143D01*
Y292016D02*
Y330143D01*
Y292016D02*
X356000Y292000D01*
X354500Y331500D02*
X354627D01*
X378000Y341500D02*
X379969D01*
X410945Y278406D02*
X421500Y288961D01*
Y335500D01*
X366000Y292000D02*
X366500Y291500D01*
X348500Y299000D02*
X350500Y297000D01*
X332500Y305000D02*
Y312500D01*
X352532Y336500D02*
X354500D01*
X332500Y332500D02*
X348532D01*
X352532Y336500D01*
X343531Y322500D02*
X352532Y331500D01*
X354500D01*
X332500Y322500D02*
X343531D01*
X328500Y326500D02*
Y383500D01*
Y326500D02*
X332500Y322500D01*
X356566Y386000D02*
X358000D01*
X338500Y383500D02*
X354066D01*
X356566Y386000D01*
D25*
X410000Y314430D02*
D03*
Y267973D02*
D03*
D26*
X411500Y335500D02*
D03*
X421500D02*
D03*
X400000Y350500D02*
D03*
X410000D02*
D03*
D27*
X328500Y383500D02*
D03*
X338500D02*
D03*
X358000Y386000D02*
D03*
X368000D02*
D03*
D28*
X354500Y331500D02*
D03*
X378000D02*
D03*
D29*
X354500Y336500D02*
D03*
Y341500D02*
D03*
X378000Y336500D02*
D03*
Y341500D02*
D03*
D30*
X410945Y303997D02*
D03*
X366500Y281000D02*
D03*
X356000Y292000D02*
D03*
D31*
X410945Y278406D02*
D03*
D32*
X356500Y281000D02*
D03*
X366000Y292000D02*
D03*
D33*
X332500Y332500D02*
D03*
Y322500D02*
D03*
D34*
Y312500D02*
D03*
M02*
