G04*
G04 #@! TF.GenerationSoftware,Altium Limited,Altium Designer,21.8.1 (53)*
G04*
G04 Layer_Color=255*
%FSLAX25Y25*%
%MOIN*%
G70*
G04*
G04 #@! TF.SameCoordinates,09E1DB28-DAEE-4E81-ADDD-69EA7BC9691D*
G04*
G04*
G04 #@! TF.FilePolarity,Positive*
G04*
G01*
G75*
%ADD25R,0.11811X0.19685*%
%ADD26C,0.05512*%
%ADD27C,0.06299*%
%ADD28O,0.07874X0.03937*%
%ADD29O,0.07874X0.03937*%
%ADD30C,0.05906*%
%ADD31R,0.05906X0.05906*%
%ADD32R,0.05906X0.05906*%
%ADD33C,0.04724*%
%ADD34R,0.04724X0.04724*%
D25*
X410000Y314430D02*
D03*
Y267973D02*
D03*
D26*
X411500Y335500D02*
D03*
X421500D02*
D03*
X400000Y350500D02*
D03*
X410000D02*
D03*
D27*
X328500Y383500D02*
D03*
X338500D02*
D03*
X358000Y386000D02*
D03*
X368000D02*
D03*
D28*
X354500Y331500D02*
D03*
X378000D02*
D03*
D29*
X354500Y336500D02*
D03*
Y341500D02*
D03*
X378000Y336500D02*
D03*
Y341500D02*
D03*
D30*
X410945Y303997D02*
D03*
X366500Y281000D02*
D03*
X356000Y292000D02*
D03*
D31*
X410945Y278406D02*
D03*
D32*
X356500Y281000D02*
D03*
X366000Y292000D02*
D03*
D33*
X332500Y332500D02*
D03*
Y322500D02*
D03*
D34*
Y312500D02*
D03*
M02*
