G04*
G04 #@! TF.GenerationSoftware,Altium Limited,Altium Designer,21.8.1 (53)*
G04*
G04 Layer_Physical_Order=2*
G04 Layer_Color=16711680*
%FSLAX25Y25*%
%MOIN*%
G70*
G04*
G04 #@! TF.SameCoordinates,09E1DB28-DAEE-4E81-ADDD-69EA7BC9691D*
G04*
G04*
G04 #@! TF.FilePolarity,Positive*
G04*
G01*
G75*
%ADD26C,0.05512*%
%ADD27C,0.06299*%
%ADD28O,0.07874X0.03937*%
%ADD29O,0.07874X0.03937*%
%ADD30C,0.05906*%
%ADD31R,0.05906X0.05906*%
%ADD32R,0.05906X0.05906*%
%ADD33C,0.04724*%
%ADD34R,0.04724X0.04724*%
G36*
X385558Y389500D02*
X384779Y388721D01*
X384558Y388390D01*
X384481Y388000D01*
Y367500D01*
X384558Y367110D01*
X384779Y366779D01*
X385110Y366558D01*
X385500Y366480D01*
X403480D01*
Y358500D01*
X403558Y358110D01*
X403779Y357779D01*
X404110Y357558D01*
X404500Y357481D01*
X405078D01*
X407480Y355078D01*
Y355000D01*
X407558Y354610D01*
X407779Y354279D01*
X407897Y354200D01*
X407906Y353628D01*
X407694Y353505D01*
X406994Y352806D01*
X406500Y351950D01*
X406244Y350994D01*
Y350006D01*
X406500Y349050D01*
X406994Y348194D01*
X407694Y347495D01*
X408550Y347000D01*
X409506Y346744D01*
X410495D01*
X411450Y347000D01*
X412306Y347495D01*
X412843Y348031D01*
X413088Y348171D01*
X413503Y348055D01*
X414981Y346578D01*
Y345000D01*
X415058Y344610D01*
X415279Y344279D01*
X415610Y344058D01*
X416000Y343981D01*
X416578D01*
X420831Y339727D01*
X420682Y339169D01*
X420050Y339000D01*
X419194Y338506D01*
X418495Y337806D01*
X418000Y336950D01*
X417744Y335995D01*
Y335005D01*
X418000Y334050D01*
X418495Y333194D01*
X419194Y332494D01*
X420050Y332000D01*
X421005Y331744D01*
X421994D01*
X422950Y332000D01*
X423806Y332494D01*
X424506Y333194D01*
X425000Y334050D01*
X425219Y334868D01*
X425718Y334797D01*
X425481Y321518D01*
X425482Y321509D01*
X425481Y321500D01*
X425518Y321314D01*
X425551Y321127D01*
X425556Y321119D01*
X425558Y321110D01*
X425664Y320952D01*
X425766Y320792D01*
X425774Y320787D01*
X425779Y320779D01*
X440980Y305578D01*
Y264630D01*
X440759Y264520D01*
X422500D01*
X422110Y264442D01*
X421779Y264221D01*
X421558Y263890D01*
X421481Y263500D01*
Y257520D01*
X403020D01*
Y263078D01*
X403221Y263279D01*
X403442Y263610D01*
X403519Y264000D01*
X403442Y264390D01*
X403221Y264721D01*
X402721Y265221D01*
X402390Y265442D01*
X402000Y265519D01*
X383019D01*
Y312500D01*
X382942Y312890D01*
X382721Y313221D01*
X381221Y314721D01*
X380890Y314942D01*
X380500Y315019D01*
X375500D01*
X375110Y314942D01*
X374779Y314721D01*
X374558Y314390D01*
X374481Y314000D01*
Y253422D01*
X374078Y253019D01*
X347630D01*
X347519Y253241D01*
Y297000D01*
X347442Y297390D01*
X347221Y297721D01*
X346890Y297942D01*
X346500Y298020D01*
X321500D01*
X321020Y298434D01*
Y393981D01*
X381078D01*
X385558Y389500D01*
D02*
G37*
%LPC*%
G36*
X329046Y387650D02*
X329000D01*
Y384000D01*
X332650D01*
Y384046D01*
X332367Y385102D01*
X331821Y386048D01*
X331048Y386821D01*
X330102Y387367D01*
X329046Y387650D01*
D02*
G37*
G36*
X328000D02*
X327954D01*
X326898Y387367D01*
X325952Y386821D01*
X325180Y386048D01*
X324633Y385102D01*
X324350Y384046D01*
Y384000D01*
X328000D01*
Y387650D01*
D02*
G37*
G36*
X368546Y390150D02*
X367454D01*
X366398Y389867D01*
X365452Y389320D01*
X364680Y388548D01*
X364133Y387602D01*
X363850Y386546D01*
Y385454D01*
X364133Y384398D01*
X364680Y383452D01*
X365452Y382680D01*
X366398Y382133D01*
X367454Y381850D01*
X368546D01*
X369602Y382133D01*
X370548Y382680D01*
X371321Y383452D01*
X371867Y384398D01*
X372150Y385454D01*
Y386546D01*
X371867Y387602D01*
X371321Y388548D01*
X370548Y389320D01*
X369602Y389867D01*
X368546Y390150D01*
D02*
G37*
G36*
X358546D02*
X357454D01*
X356398Y389867D01*
X355452Y389320D01*
X354679Y388548D01*
X354133Y387602D01*
X353850Y386546D01*
Y385454D01*
X354133Y384398D01*
X354679Y383452D01*
X355452Y382680D01*
X356398Y382133D01*
X357454Y381850D01*
X358546D01*
X359602Y382133D01*
X360548Y382680D01*
X361320Y383452D01*
X361867Y384398D01*
X362150Y385454D01*
Y386546D01*
X361867Y387602D01*
X361320Y388548D01*
X360548Y389320D01*
X359602Y389867D01*
X358546Y390150D01*
D02*
G37*
G36*
X339046Y387650D02*
X337954D01*
X336898Y387367D01*
X335952Y386821D01*
X335179Y386048D01*
X334633Y385102D01*
X334350Y384046D01*
Y382954D01*
X334633Y381898D01*
X335179Y380952D01*
X335952Y380180D01*
X336898Y379633D01*
X337954Y379350D01*
X339046D01*
X340102Y379633D01*
X341048Y380180D01*
X341821Y380952D01*
X342367Y381898D01*
X342650Y382954D01*
Y384046D01*
X342367Y385102D01*
X341821Y386048D01*
X341048Y386821D01*
X340102Y387367D01*
X339046Y387650D01*
D02*
G37*
G36*
X332650Y383000D02*
X329000D01*
Y379350D01*
X329046D01*
X330102Y379633D01*
X331048Y380180D01*
X331821Y380952D01*
X332367Y381898D01*
X332650Y382954D01*
Y383000D01*
D02*
G37*
G36*
X328000D02*
X324350D01*
Y382954D01*
X324633Y381898D01*
X325180Y380952D01*
X325952Y380180D01*
X326898Y379633D01*
X327954Y379350D01*
X328000D01*
Y383000D01*
D02*
G37*
G36*
X400494Y354256D02*
X399505D01*
X398550Y354000D01*
X397694Y353505D01*
X396994Y352806D01*
X396500Y351950D01*
X396244Y350994D01*
Y350006D01*
X396500Y349050D01*
X396994Y348194D01*
X397694Y347495D01*
X398550Y347000D01*
X399505Y346744D01*
X400494D01*
X401450Y347000D01*
X402306Y347495D01*
X403006Y348194D01*
X403500Y349050D01*
X403756Y350006D01*
Y350994D01*
X403500Y351950D01*
X403006Y352806D01*
X402306Y353505D01*
X401450Y354000D01*
X400494Y354256D01*
D02*
G37*
G36*
X379969Y344494D02*
X376031D01*
X375257Y344392D01*
X374534Y344093D01*
X373914Y343617D01*
X373439Y342997D01*
X373139Y342275D01*
X373037Y341500D01*
X373139Y340725D01*
X373439Y340003D01*
X373914Y339383D01*
X374087Y339250D01*
Y338750D01*
X373914Y338617D01*
X373439Y337997D01*
X373139Y337275D01*
X373037Y336500D01*
X373139Y335725D01*
X373439Y335003D01*
X373914Y334383D01*
X374087Y334250D01*
Y333750D01*
X373914Y333617D01*
X373439Y332997D01*
X373139Y332275D01*
X373103Y332000D01*
X382897D01*
X382861Y332275D01*
X382561Y332997D01*
X382086Y333617D01*
X381913Y333750D01*
Y334250D01*
X382086Y334383D01*
X382561Y335003D01*
X382861Y335725D01*
X382963Y336500D01*
X382861Y337275D01*
X382561Y337997D01*
X382086Y338617D01*
X381913Y338750D01*
Y339250D01*
X382086Y339383D01*
X382561Y340003D01*
X382861Y340725D01*
X382963Y341500D01*
X382861Y342275D01*
X382561Y342997D01*
X382086Y343617D01*
X381466Y344093D01*
X380743Y344392D01*
X379969Y344494D01*
D02*
G37*
G36*
X356469D02*
X352532D01*
X351757Y344392D01*
X351034Y344093D01*
X350414Y343617D01*
X349939Y342997D01*
X349639Y342275D01*
X349537Y341500D01*
X349639Y340725D01*
X349939Y340003D01*
X350414Y339383D01*
X350587Y339250D01*
Y338750D01*
X350414Y338617D01*
X349939Y337997D01*
X349639Y337275D01*
X349537Y336500D01*
X349639Y335725D01*
X349939Y335003D01*
X350414Y334383D01*
X350587Y334250D01*
Y333750D01*
X350414Y333617D01*
X349939Y332997D01*
X349639Y332275D01*
X349603Y332000D01*
X359397D01*
X359361Y332275D01*
X359062Y332997D01*
X358586Y333617D01*
X358413Y333750D01*
Y334250D01*
X358586Y334383D01*
X359062Y335003D01*
X359361Y335725D01*
X359463Y336500D01*
X359361Y337275D01*
X359062Y337997D01*
X358586Y338617D01*
X358413Y338750D01*
Y339250D01*
X358586Y339383D01*
X359062Y340003D01*
X359361Y340725D01*
X359463Y341500D01*
X359361Y342275D01*
X359062Y342997D01*
X358586Y343617D01*
X357966Y344093D01*
X357243Y344392D01*
X356469Y344494D01*
D02*
G37*
G36*
X411995Y339256D02*
X411005D01*
X410050Y339000D01*
X409194Y338506D01*
X408495Y337806D01*
X408000Y336950D01*
X407744Y335995D01*
Y335005D01*
X408000Y334050D01*
X408495Y333194D01*
X409194Y332494D01*
X410050Y332000D01*
X411005Y331744D01*
X411995D01*
X412950Y332000D01*
X413806Y332494D01*
X414505Y333194D01*
X415000Y334050D01*
X415256Y335005D01*
Y335995D01*
X415000Y336950D01*
X414505Y337806D01*
X413806Y338506D01*
X412950Y339000D01*
X411995Y339256D01*
D02*
G37*
G36*
X332943Y335862D02*
X332057D01*
X331202Y335633D01*
X330436Y335190D01*
X329810Y334564D01*
X329367Y333798D01*
X329138Y332943D01*
Y332057D01*
X329367Y331202D01*
X329810Y330436D01*
X330436Y329810D01*
X331202Y329367D01*
X332057Y329138D01*
X332943D01*
X333798Y329367D01*
X334564Y329810D01*
X335190Y330436D01*
X335633Y331202D01*
X335862Y332057D01*
Y332943D01*
X335633Y333798D01*
X335190Y334564D01*
X334564Y335190D01*
X333798Y335633D01*
X332943Y335862D01*
D02*
G37*
G36*
X382897Y331000D02*
X378500D01*
Y328506D01*
X379969D01*
X380743Y328608D01*
X381466Y328907D01*
X382086Y329383D01*
X382561Y330003D01*
X382861Y330725D01*
X382897Y331000D01*
D02*
G37*
G36*
X377500D02*
X373103D01*
X373139Y330725D01*
X373439Y330003D01*
X373914Y329383D01*
X374534Y328907D01*
X375257Y328608D01*
X376031Y328506D01*
X377500D01*
Y331000D01*
D02*
G37*
G36*
X359397D02*
X355000D01*
Y328506D01*
X356469D01*
X357243Y328608D01*
X357966Y328907D01*
X358586Y329383D01*
X359062Y330003D01*
X359361Y330725D01*
X359397Y331000D01*
D02*
G37*
G36*
X354000D02*
X349603D01*
X349639Y330725D01*
X349939Y330003D01*
X350414Y329383D01*
X351034Y328907D01*
X351757Y328608D01*
X352532Y328506D01*
X354000D01*
Y331000D01*
D02*
G37*
G36*
X333000Y325847D02*
Y323000D01*
X335847D01*
X335633Y323798D01*
X335190Y324564D01*
X334564Y325190D01*
X333798Y325633D01*
X333000Y325847D01*
D02*
G37*
G36*
X332000D02*
X331202Y325633D01*
X330436Y325190D01*
X329810Y324564D01*
X329367Y323798D01*
X329153Y323000D01*
X332000D01*
Y325847D01*
D02*
G37*
G36*
X335847Y322000D02*
X333000D01*
Y319153D01*
X333798Y319367D01*
X334564Y319810D01*
X335190Y320436D01*
X335633Y321202D01*
X335847Y322000D01*
D02*
G37*
G36*
X332000D02*
X329153D01*
X329367Y321202D01*
X329810Y320436D01*
X330436Y319810D01*
X331202Y319367D01*
X332000Y319153D01*
Y322000D01*
D02*
G37*
G36*
X335862Y315862D02*
X329138D01*
Y309138D01*
X335862D01*
Y315862D01*
D02*
G37*
G36*
X411465Y307949D02*
X410425D01*
X409419Y307680D01*
X408518Y307160D01*
X407782Y306424D01*
X407262Y305522D01*
X406992Y304517D01*
Y303476D01*
X407262Y302471D01*
X407782Y301570D01*
X408518Y300834D01*
X409419Y300313D01*
X410425Y300044D01*
X411465D01*
X412471Y300313D01*
X413372Y300834D01*
X414108Y301570D01*
X414628Y302471D01*
X414898Y303476D01*
Y304517D01*
X414628Y305522D01*
X414108Y306424D01*
X413372Y307160D01*
X412471Y307680D01*
X411465Y307949D01*
D02*
G37*
G36*
X356520Y295953D02*
X356500D01*
Y292500D01*
X359953D01*
Y292520D01*
X359683Y293526D01*
X359163Y294427D01*
X358427Y295163D01*
X357526Y295683D01*
X356520Y295953D01*
D02*
G37*
G36*
X355500D02*
X355480D01*
X354474Y295683D01*
X353573Y295163D01*
X352837Y294427D01*
X352317Y293526D01*
X352047Y292520D01*
Y292500D01*
X355500D01*
Y295953D01*
D02*
G37*
G36*
X369953D02*
X362047D01*
Y288047D01*
X369953D01*
Y295953D01*
D02*
G37*
G36*
X359953Y291500D02*
X356500D01*
Y288047D01*
X356520D01*
X357526Y288317D01*
X358427Y288837D01*
X359163Y289573D01*
X359683Y290474D01*
X359953Y291480D01*
Y291500D01*
D02*
G37*
G36*
X355500D02*
X352047D01*
Y291480D01*
X352317Y290474D01*
X352837Y289573D01*
X353573Y288837D01*
X354474Y288317D01*
X355480Y288047D01*
X355500D01*
Y291500D01*
D02*
G37*
G36*
X367020Y284953D02*
X365980D01*
X364974Y284683D01*
X364073Y284163D01*
X363337Y283427D01*
X362817Y282526D01*
X362547Y281520D01*
Y280480D01*
X362817Y279474D01*
X363337Y278573D01*
X364073Y277837D01*
X364974Y277317D01*
X365980Y277047D01*
X367020D01*
X368026Y277317D01*
X368927Y277837D01*
X369663Y278573D01*
X370183Y279474D01*
X370453Y280480D01*
Y281520D01*
X370183Y282526D01*
X369663Y283427D01*
X368927Y284163D01*
X368026Y284683D01*
X367020Y284953D01*
D02*
G37*
G36*
X360453D02*
X352547D01*
Y277047D01*
X360453D01*
Y284953D01*
D02*
G37*
G36*
X414898Y282359D02*
X406992D01*
Y274453D01*
X414898D01*
Y282359D01*
D02*
G37*
%LPD*%
D26*
X411500Y335500D02*
D03*
X421500D02*
D03*
X400000Y350500D02*
D03*
X410000D02*
D03*
D27*
X328500Y383500D02*
D03*
X338500D02*
D03*
X358000Y386000D02*
D03*
X368000D02*
D03*
D28*
X354500Y331500D02*
D03*
X378000D02*
D03*
D29*
X354500Y336500D02*
D03*
Y341500D02*
D03*
X378000Y336500D02*
D03*
Y341500D02*
D03*
D30*
X410945Y303997D02*
D03*
X366500Y281000D02*
D03*
X356000Y292000D02*
D03*
D31*
X410945Y278406D02*
D03*
D32*
X356500Y281000D02*
D03*
X366000Y292000D02*
D03*
D33*
X332500Y332500D02*
D03*
Y322500D02*
D03*
D34*
Y312500D02*
D03*
M02*
