G04*
G04 #@! TF.GenerationSoftware,Altium Limited,Altium Designer,21.8.1 (53)*
G04*
G04 Layer_Color=65535*
%FSLAX25Y25*%
%MOIN*%
G70*
G04*
G04 #@! TF.SameCoordinates,09E1DB28-DAEE-4E81-ADDD-69EA7BC9691D*
G04*
G04*
G04 #@! TF.FilePolarity,Positive*
G04*
G01*
G75*
%ADD10C,0.01000*%
%ADD11C,0.00500*%
%ADD12C,0.00984*%
%ADD13C,0.00787*%
%ADD14C,0.01575*%
D10*
X417521Y335500D02*
G03*
X417521Y335500I-6021J0D01*
G01*
X415743D02*
G03*
X415743Y335500I-4243J0D01*
G01*
X406021Y350500D02*
G03*
X406021Y350500I-6021J0D01*
G01*
X404243D02*
G03*
X404243Y350500I-4243J0D01*
G01*
X389502Y337001D02*
Y342999D01*
X392501D01*
X393501Y341999D01*
Y340000D01*
X392501Y339000D01*
X389502D01*
X391502D02*
X393501Y337001D01*
X395500Y341000D02*
X399499Y337001D01*
X397500Y339000D01*
X399499Y341000D01*
X395500Y337001D01*
X401498D02*
X403498D01*
X402498D01*
Y342999D01*
X401498Y341999D01*
X383503Y359001D02*
Y364999D01*
X386502D01*
X387501Y363999D01*
Y362000D01*
X386502Y361000D01*
X383503D01*
X385502D02*
X387501Y359001D01*
X389501Y363000D02*
X393499Y359001D01*
X391500Y361000D01*
X393499Y363000D01*
X389501Y359001D01*
X399497D02*
X395499D01*
X399497Y363000D01*
Y363999D01*
X398498Y364999D01*
X396498D01*
X395499Y363999D01*
X343502Y379999D02*
Y374001D01*
X346501D01*
X347500Y375001D01*
Y378999D01*
X346501Y379999D01*
X343502D01*
X353498Y374001D02*
X349500D01*
X353498Y378000D01*
Y378999D01*
X352499Y379999D01*
X350499D01*
X349500Y378999D01*
X376001Y381499D02*
Y375501D01*
X379000D01*
X380000Y376501D01*
Y380499D01*
X379000Y381499D01*
X376001D01*
X381999Y375501D02*
X383999D01*
X382999D01*
Y381499D01*
X381999Y380499D01*
X353099Y353300D02*
Y357298D01*
X352099Y358298D01*
X350100D01*
X349100Y357298D01*
Y353300D01*
X350100Y352300D01*
X352099D01*
X351099Y354299D02*
X353099Y352300D01*
X352099D02*
X353099Y353300D01*
X359097Y352300D02*
X355098D01*
X359097Y356299D01*
Y357298D01*
X358097Y358298D01*
X356098D01*
X355098Y357298D01*
X376599Y353300D02*
Y357298D01*
X375599Y358298D01*
X373600D01*
X372600Y357298D01*
Y353300D01*
X373600Y352300D01*
X375599D01*
X374599Y354299D02*
X376599Y352300D01*
X375599D02*
X376599Y353300D01*
X378598Y352300D02*
X380597D01*
X379598D01*
Y358298D01*
X378598Y357298D01*
X385400Y333698D02*
Y327700D01*
X389399D01*
X395397Y332698D02*
X394397Y333698D01*
X392398D01*
X391398Y332698D01*
Y331699D01*
X392398Y330699D01*
X394397D01*
X395397Y329699D01*
Y328700D01*
X394397Y327700D01*
X392398D01*
X391398Y328700D01*
X397396Y327700D02*
X399395D01*
X398396D01*
Y333698D01*
X397396Y332698D01*
X352100Y287400D02*
Y293398D01*
X355099D01*
X356099Y292398D01*
Y290399D01*
X355099Y289399D01*
X352100D01*
X358098Y287400D02*
X360097D01*
X359098D01*
Y293398D01*
X358098Y292398D01*
X351600Y320400D02*
Y326398D01*
X354599D01*
X355599Y325398D01*
Y323399D01*
X354599Y322399D01*
X351600D01*
X361597Y320400D02*
X357598D01*
X361597Y324399D01*
Y325398D01*
X360597Y326398D01*
X358598D01*
X357598Y325398D01*
X323100Y350900D02*
Y356898D01*
X326099D01*
X327099Y355898D01*
Y353899D01*
X326099Y352899D01*
X323100D01*
X325099D02*
X327099Y350900D01*
X329098D02*
X331097D01*
X330098D01*
Y356898D01*
X329098Y355898D01*
D11*
X327791Y361846D02*
G03*
X339209Y361846I5709J0D01*
G01*
X357291Y364347D02*
G03*
X368709Y364347I5709J0D01*
G01*
X327791Y361846D02*
Y366177D01*
X339209Y361846D02*
Y366177D01*
X324839D02*
Y391374D01*
Y366177D02*
X342161D01*
Y391374D01*
X324839D02*
X342161D01*
X357291Y364347D02*
Y368677D01*
X368709Y364347D02*
Y368677D01*
X354339D02*
Y393874D01*
Y368677D02*
X371661D01*
Y393874D01*
X354339D02*
X371661D01*
D12*
X349594Y348323D02*
G03*
X349594Y348323I-492J0D01*
G01*
X373095D02*
G03*
X373095Y348323I-492J0D01*
G01*
D13*
X348516Y327954D02*
G03*
X348516Y345046I5984J8546D01*
G01*
X372016Y327954D02*
G03*
X372016Y345046I5984J8546D01*
G01*
X348516Y327954D02*
Y345046D01*
X372016Y327954D02*
Y345046D01*
X417087Y266004D02*
X435197D01*
X384803D02*
X402913D01*
X384803D02*
Y316398D01*
X435197Y266004D02*
Y304587D01*
X423386Y316398D02*
X435197Y304587D01*
X417087Y316398D02*
X423386D01*
X384803D02*
X402913D01*
X351500Y271000D02*
X371500D01*
Y276000D01*
X351500Y271000D02*
Y276000D01*
X371500D01*
X354833Y257667D02*
Y271000D01*
Y257667D02*
X356500Y256000D01*
X358167Y257667D01*
X358167Y257667D02*
Y271000D01*
X364833Y257667D02*
Y271000D01*
Y257667D02*
X366500Y256000D01*
X368167Y257667D01*
Y271000D01*
X351000Y302000D02*
X371000D01*
X351000Y297000D02*
Y302000D01*
X371000Y297000D02*
Y302000D01*
X351000Y297000D02*
X371000D01*
X367667Y302000D02*
Y315333D01*
X366000Y317000D02*
X367667Y315333D01*
X364333D02*
X366000Y317000D01*
X364333Y302000D02*
Y315333D01*
X357667Y302000D02*
Y315333D01*
X356000Y317000D02*
X357667Y315333D01*
X354333D02*
X356000Y317000D01*
X354333Y302000D02*
Y315333D01*
X322500Y302500D02*
Y342500D01*
X332500D01*
Y347500D01*
X342500D01*
Y302500D02*
Y347500D01*
X322500Y302500D02*
X342500D01*
D14*
X419294Y261673D02*
G03*
X419294Y261673I-894J0D01*
G01*
M02*
